<svg xmlns="http://www.w3.org/2000/svg" width="1600" height="900" viewBox="0 0 1600 900" role="img" aria-label="Produtos personalizados">
  <rect width="1600" height="900" fill="#f8fafc"/>
  <g opacity="0.95">
    <rect x="980" y="130" width="280" height="340" rx="16" fill="#fff" stroke="#e5e7eb" stroke-width="4"/>
    <path d="M1040 210h160v180h-160z" fill="#fde68a"/>
    <path d="M1072 250h96v24h-96zM1072 300h96v24h-96z" fill="#92400e"/>
    <rect x="1125" y="520" width="260" height="210" rx="22" fill="#0f766e"/>
    <path d="M1184 520c0-48 142-48 142 0" fill="none" stroke="#0f172a" stroke-width="18" stroke-linecap="round"/>
    <circle cx="1260" cy="625" r="42" fill="#fff"/>
    <rect x="750" y="250" width="220" height="260" rx="36" fill="#fdf2f8" stroke="#f9a8d4" stroke-width="4"/>
    <path d="M805 250c18-55 92-55 110 0" fill="none" stroke="#f9a8d4" stroke-width="18" stroke-linecap="round"/>
    <path d="M817 350h86M805 392h110" stroke="#be185d" stroke-width="18" stroke-linecap="round"/>
    <rect x="1320" y="250" width="120" height="170" rx="18" fill="#fff" stroke="#d1d5db" stroke-width="4"/>
    <path d="M1360 250h40v-58h-40z" fill="#c7d2fe"/>
    <circle cx="1380" cy="340" r="30" fill="#b45309"/>
  </g>
</svg>
